<?xml version="1.0" encoding="utf-8" standalone="no"?>
<!DOCTYPE svg PUBLIC "-//W3C//DTD SVG 1.1//EN"
  "http://www.w3.org/Graphics/SVG/1.1/DTD/svg11.dtd">
<!-- Created with matplotlib (https://matplotlib.org/) -->
<svg height="576pt" version="1.1" viewBox="0 0 864 576" width="864pt" xmlns="http://www.w3.org/2000/svg" xmlns:xlink="http://www.w3.org/1999/xlink">
 <defs>
  <style type="text/css">
*{stroke-linecap:butt;stroke-linejoin:round;}
  </style>
 </defs>
 <g id="figure_1">
  <g id="patch_1">
   <path d="M 0 576 
L 864 576 
L 864 0 
L 0 0 
z
" style="fill:#ffffff;"/>
  </g>
  <g id="axes_1">
   <g id="patch_2">
    <path d="M 108 504 
L 777.6 504 
L 777.6 69.12 
L 108 69.12 
z
" style="fill:#ffffff;"/>
   </g>
   <g id="matplotlib.axis_1">
    <g id="xtick_1">
     <g id="line2d_1">
      <defs>
       <path d="M 0 0 
L 0 9 
" id="mee2e9bf19d" style="stroke:#000000;stroke-width:1.875;"/>
      </defs>
      <g>
       <use style="stroke:#000000;stroke-width:1.875;" x="138.436364" xlink:href="#mee2e9bf19d" y="504"/>
      </g>
     </g>
     <g id="text_1">
      <!-- $0$ -->
      <defs>
       <path d="M 42 31.84375 
C 42 37.96875 41.90625 48.421875 37.703125 56.453125 
C 34 63.484375 28.09375 66 22.90625 66 
C 18.09375 66 12 63.78125 8.203125 56.5625 
C 4.203125 49.015625 3.796875 39.671875 3.796875 31.84375 
C 3.796875 26.109375 3.90625 17.375 7 9.734375 
C 11.296875 -0.609375 19 -2 22.90625 -2 
C 27.5 -2 34.5 -0.109375 38.59375 9.4375 
C 41.59375 16.375 42 24.5 42 31.84375 
z
M 22.90625 -0.40625 
C 16.5 -0.40625 12.703125 5.125 11.296875 12.75 
C 10.203125 18.6875 10.203125 27.328125 10.203125 32.953125 
C 10.203125 40.6875 10.203125 47.109375 11.5 53.234375 
C 13.40625 61.78125 19 64.390625 22.90625 64.390625 
C 27 64.390625 32.296875 61.671875 34.203125 53.4375 
C 35.5 47.71875 35.59375 40.984375 35.59375 32.953125 
C 35.59375 26.421875 35.59375 18.375 34.40625 12.453125 
C 32.296875 1.5 26.40625 -0.40625 22.90625 -0.40625 
z
" id="CMR17-48"/>
      </defs>
      <g transform="translate(133.867316 530.336997)scale(0.2 -0.2)">
       <use transform="scale(0.996264)" xlink:href="#CMR17-48"/>
      </g>
     </g>
    </g>
    <g id="xtick_2">
     <g id="line2d_2">
      <g>
       <use style="stroke:#000000;stroke-width:1.875;" x="260.181818" xlink:href="#mee2e9bf19d" y="504"/>
      </g>
     </g>
     <g id="text_2">
      <!-- $2$ -->
      <defs>
       <path d="M 41.703125 15.46875 
L 39.90625 15.46875 
C 38.90625 8.390625 38.09375 7.1875 37.703125 6.59375 
C 37.203125 5.796875 30 5.796875 28.59375 5.796875 
L 9.40625 5.796875 
C 13 9.6875 20 16.765625 28.5 24.9375 
C 34.59375 30.71875 41.703125 37.5 41.703125 47.390625 
C 41.703125 59.1875 32.296875 66 21.796875 66 
C 10.796875 66 4.09375 56.296875 4.09375 47.296875 
C 4.09375 43.390625 7 42.890625 8.203125 42.890625 
C 9.203125 42.890625 12.203125 43.484375 12.203125 46.984375 
C 12.203125 50.09375 9.59375 51 8.203125 51 
C 7.59375 51 7 50.890625 6.59375 50.6875 
C 8.5 59.1875 14.296875 63.390625 20.40625 63.390625 
C 29.09375 63.390625 34.796875 56.5 34.796875 47.390625 
C 34.796875 38.703125 29.703125 31.21875 24 24.734375 
L 4.09375 2.296875 
L 4.09375 0 
L 39.296875 0 
z
" id="CMR17-50"/>
      </defs>
      <g transform="translate(255.61277 530.336997)scale(0.2 -0.2)">
       <use transform="scale(0.996264)" xlink:href="#CMR17-50"/>
      </g>
     </g>
    </g>
    <g id="xtick_3">
     <g id="line2d_3">
      <g>
       <use style="stroke:#000000;stroke-width:1.875;" x="381.927273" xlink:href="#mee2e9bf19d" y="504"/>
      </g>
     </g>
     <g id="text_3">
      <!-- $4$ -->
      <defs>
       <path d="M 33.59375 64.796875 
C 33.59375 66.890625 33.5 67 31.703125 67 
L 2 19.59375 
L 2 17 
L 27.796875 17 
L 27.796875 7.1875 
C 27.796875 3.59375 27.59375 2.59375 20.59375 2.59375 
L 18.703125 2.59375 
L 18.703125 0 
C 21.90625 0.1875 27.296875 0.1875 30.703125 0.1875 
C 34.09375 0.1875 39.5 0.1875 42.703125 0 
L 42.703125 2.59375 
L 40.796875 2.59375 
C 33.796875 2.59375 33.59375 3.59375 33.59375 7.1875 
L 33.59375 17 
L 43.796875 17 
L 43.796875 19.59375 
L 33.59375 19.59375 
z
M 28.09375 58.171875 
L 28.09375 19.59375 
L 4 19.59375 
z
" id="CMR17-52"/>
      </defs>
      <g transform="translate(377.358225 530.336997)scale(0.2 -0.2)">
       <use transform="scale(0.996264)" xlink:href="#CMR17-52"/>
      </g>
     </g>
    </g>
    <g id="xtick_4">
     <g id="line2d_4">
      <g>
       <use style="stroke:#000000;stroke-width:1.875;" x="503.672727" xlink:href="#mee2e9bf19d" y="504"/>
      </g>
     </g>
     <g id="text_4">
      <!-- $6$ -->
      <defs>
       <path d="M 10.59375 34.34375 
C 10.59375 58 21.796875 63.6875 28.296875 63.6875 
C 30.40625 63.6875 35.5 63.265625 37.5 59.09375 
C 35.90625 59.09375 32.90625 59.09375 32.90625 55.59375 
C 32.90625 52.890625 35.09375 52 36.5 52 
C 37.40625 52 40.09375 52.390625 40.09375 55.796875 
C 40.09375 62.296875 35.09375 66 28.203125 66 
C 16.296875 66 3.796875 53.296875 3.796875 31.421875 
C 3.796875 4.015625 15.09375 -2 23.09375 -2 
C 32.796875 -2 42 6.734375 42 20.234375 
C 42 32.828125 33.90625 42 23.703125 42 
C 17.59375 42 13.09375 37.96875 10.59375 30.921875 
z
M 23.09375 0.390625 
C 10.796875 0.390625 10.796875 18.9375 10.796875 22.65625 
C 10.796875 29.90625 14.203125 40.390625 23.5 40.390625 
C 25.203125 40.390625 30.09375 40.390625 33.40625 33.4375 
C 35.203125 29.515625 35.203125 25.375 35.203125 20.34375 
C 35.203125 14.90625 35.203125 10.875 33.09375 6.84375 
C 30.90625 2.703125 27.703125 0.390625 23.09375 0.390625 
z
" id="CMR17-54"/>
      </defs>
      <g transform="translate(499.10368 530.336997)scale(0.2 -0.2)">
       <use transform="scale(0.996264)" xlink:href="#CMR17-54"/>
      </g>
     </g>
    </g>
    <g id="xtick_5">
     <g id="line2d_5">
      <g>
       <use style="stroke:#000000;stroke-width:1.875;" x="625.418182" xlink:href="#mee2e9bf19d" y="504"/>
      </g>
     </g>
     <g id="text_5">
      <!-- $8$ -->
      <defs>
       <path d="M 27.203125 35.765625 
C 33.5 38.96875 39.90625 43.796875 39.90625 51.53125 
C 39.90625 60.6875 31.09375 66 23 66 
C 13.90625 66 5.90625 59.375 5.90625 50.234375 
C 5.90625 47.71875 6.5 43.390625 10.40625 39.578125 
C 11.40625 38.578125 15.59375 35.5625 18.296875 33.65625 
C 13.796875 31.34375 3.296875 25.8125 3.296875 14.765625 
C 3.296875 4.40625 13.09375 -2 22.796875 -2 
C 33.5 -2 42.5 5.71875 42.5 15.96875 
C 42.5 25.109375 36.40625 29.328125 32.40625 32.046875 
z
M 14.09375 44.609375 
C 13.296875 45.109375 9.296875 48.21875 9.296875 52.9375 
C 9.296875 59.078125 15.59375 63.6875 22.796875 63.6875 
C 30.703125 63.6875 36.5 58.0625 36.5 51.53125 
C 36.5 42.1875 26.09375 36.859375 25.59375 36.859375 
C 25.5 36.859375 25.40625 36.859375 24.59375 37.46875 
z
M 32.5 24 
C 34 22.90625 38.796875 19.578125 38.796875 13.453125 
C 38.796875 6.015625 31.40625 0.390625 23 0.390625 
C 13.90625 0.390625 7 6.921875 7 14.859375 
C 7 22.796875 13.09375 29.4375 20 32.546875 
z
" id="CMR17-56"/>
      </defs>
      <g transform="translate(620.849134 530.336997)scale(0.2 -0.2)">
       <use transform="scale(0.996264)" xlink:href="#CMR17-56"/>
      </g>
     </g>
    </g>
    <g id="xtick_6">
     <g id="line2d_6">
      <g>
       <use style="stroke:#000000;stroke-width:1.875;" x="747.163636" xlink:href="#mee2e9bf19d" y="504"/>
      </g>
     </g>
     <g id="text_6">
      <!-- $10$ -->
      <defs>
       <path d="M 26.59375 63.796875 
C 26.59375 65.890625 26.5 66 25.09375 66 
C 21.203125 61.359375 15.296875 59.890625 9.703125 59.6875 
C 9.40625 59.6875 8.90625 59.6875 8.796875 59.5 
C 8.703125 59.296875 8.703125 59.09375 8.703125 57 
C 11.796875 57 17 57.59375 21 59.984375 
L 21 7.296875 
C 21 3.796875 20.796875 2.59375 12.203125 2.59375 
L 9.203125 2.59375 
L 9.203125 0 
C 14 0.09375 19 0.1875 23.796875 0.1875 
C 28.59375 0.1875 33.59375 0.09375 38.40625 0 
L 38.40625 2.59375 
L 35.40625 2.59375 
C 26.796875 2.59375 26.59375 3.6875 26.59375 7.296875 
z
" id="CMR17-49"/>
      </defs>
      <g transform="translate(738.025541 530.336997)scale(0.2 -0.2)">
       <use transform="scale(0.996264)" xlink:href="#CMR17-49"/>
       <use transform="translate(45.690477 0)scale(0.996264)" xlink:href="#CMR17-48"/>
      </g>
     </g>
    </g>
    <g id="text_7">
     <!-- time, c -->
     <defs>
      <path d="M 16.703125 37.1875 
L 29.703125 37.1875 
L 29.703125 43 
L 16.703125 43 
L 16.703125 55 
L 9.59375 55 
L 9.59375 43 
L 1.703125 43 
L 1.703125 37.1875 
L 9.40625 37.1875 
L 9.40625 11.734375 
C 9.40625 6 10.703125 -1 17.296875 -1 
C 22.296875 -1 26.90625 0.390625 31.296875 2.6875 
L 29.703125 8.609375 
C 27.296875 6.5 24.40625 5.296875 21.296875 5.296875 
C 16.90625 5.296875 16.703125 10.921875 16.703125 13.4375 
z
" id="CMSS17-116"/>
      <path d="M 15.296875 66 
L 6.90625 66 
L 6.90625 57.59375 
L 15.296875 57.59375 
z
M 14.796875 43 
L 7.40625 43 
L 7.40625 0 
L 14.796875 0 
z
" id="CMSS17-105"/>
      <path d="M 67 29.34375 
C 67 36.078125 65.296875 44 54.09375 44 
C 46.59375 44 42.09375 39.296875 40.09375 36.375 
C 38.296875 41.6875 34.09375 44 28.09375 44 
C 21.296875 44 17 40.09375 14.703125 37.28125 
L 14.703125 43.484375 
L 7.40625 43.484375 
L 7.40625 0 
L 15 0 
L 15 24.3125 
C 15 30.25 17.203125 37.890625 24.296875 37.890625 
C 33.40625 37.890625 33.40625 31.453125 33.40625 28.53125 
L 33.40625 0 
L 41 0 
L 41 24.3125 
C 41 30.25 43.203125 37.890625 50.296875 37.890625 
C 59.40625 37.890625 59.40625 31.453125 59.40625 28.53125 
L 59.40625 0 
L 67 0 
z
" id="CMSS17-109"/>
      <path d="M 39.09375 21.484375 
C 39.09375 24.796875 38.90625 31.265625 35.703125 36.671875 
C 32.203125 42.390625 26.5 44 22.203125 44 
C 11.796875 44 3 34.125 3 21.296875 
C 3 9.046875 12.09375 -1 23.59375 -1 
C 28.09375 -1 33.59375 0.296875 38.59375 3.890625 
C 38.59375 4.296875 38.40625 6.46875 38.296875 6.578125 
C 38.296875 6.765625 38 9.828125 38 10.234375 
C 33.203125 6.375 27.703125 5.09375 23.703125 5.09375 
C 17.296875 5.09375 10.40625 10.421875 10.09375 21.484375 
z
M 10.90625 27 
C 12.203125 32.59375 16.59375 37.890625 22.203125 37.890625 
C 23.703125 37.890625 30.703125 37.6875 32.5 27 
z
" id="CMSS17-101"/>
      <path d="M 17 0.09375 
L 17 8 
L 9 8 
L 9 0 
L 11.5 0 
L 8.90625 -12.109375 
L 12.90625 -12.109375 
z
" id="CMSS17-44"/>
      <path d="M 38.5 39.6875 
C 38.5 40.390625 33.90625 42.390625 32.703125 42.796875 
C 29.40625 44 25.203125 44 24.09375 44 
C 11.09375 44 3.296875 32.6875 3.296875 21.296875 
C 3.296875 9.296875 12 -1 23.703125 -1 
C 30.40625 -1 35.203125 1.1875 39.09375 3.796875 
L 38.5 10.390625 
C 34.203125 7.09375 29.203125 5.296875 23.796875 5.296875 
C 16 5.296875 10.90625 12.09375 10.90625 21.390625 
C 10.90625 28.59375 14.203125 37.6875 24.203125 37.6875 
C 29.703125 37.6875 32.796875 36.59375 37.40625 33.484375 
z
" id="CMSS17-99"/>
     </defs>
     <g transform="translate(415.72276 552.049627)scale(0.2 -0.2)">
      <use transform="scale(0.996264)" xlink:href="#CMSS17-116"/>
      <use transform="translate(33.831567 0)scale(0.996264)" xlink:href="#CMSS17-105"/>
      <use transform="translate(56.01229 0)scale(0.996264)" xlink:href="#CMSS17-109"/>
      <use transform="translate(130.241544 0)scale(0.996264)" xlink:href="#CMSS17-101"/>
      <use transform="translate(171.880366 0)scale(0.996264)" xlink:href="#CMSS17-44"/>
      <use transform="translate(229.133684 0)scale(0.996264)" xlink:href="#CMSS17-99"/>
     </g>
    </g>
   </g>
   <g id="matplotlib.axis_2">
    <g id="ytick_1">
     <g id="line2d_7">
      <defs>
       <path d="M 0 0 
L -9 0 
" id="m69610849c5" style="stroke:#000000;stroke-width:1.875;"/>
      </defs>
      <g>
       <use style="stroke:#000000;stroke-width:1.875;" x="108" xlink:href="#m69610849c5" y="385.245893"/>
      </g>
     </g>
     <g id="text_8">
      <!-- $10^{0}$ -->
      <g transform="translate(70.395351 392.164391)scale(0.2 -0.2)">
       <use transform="scale(0.996264)" xlink:href="#CMR17-49"/>
       <use transform="translate(45.690477 0)scale(0.996264)" xlink:href="#CMR17-48"/>
       <use transform="translate(91.380954 36.153639)scale(0.697382)" xlink:href="#CMR17-48"/>
      </g>
     </g>
    </g>
    <g id="ytick_2">
     <g id="line2d_8">
      <g>
       <use style="stroke:#000000;stroke-width:1.875;" x="108" xlink:href="#m69610849c5" y="145.752068"/>
      </g>
     </g>
     <g id="text_9">
      <!-- $10^{1}$ -->
      <g transform="translate(70.395351 152.670566)scale(0.2 -0.2)">
       <use transform="scale(0.996264)" xlink:href="#CMR17-49"/>
       <use transform="translate(45.690477 0)scale(0.996264)" xlink:href="#CMR17-48"/>
       <use transform="translate(91.380954 36.153639)scale(0.697382)" xlink:href="#CMR17-49"/>
      </g>
     </g>
    </g>
    <g id="ytick_3">
     <g id="line2d_9">
      <defs>
       <path d="M 0 0 
L -6 0 
" id="m44ea50a399" style="stroke:#000000;stroke-width:1.5;"/>
      </defs>
      <g>
       <use style="stroke:#000000;stroke-width:1.5;" x="108" xlink:href="#m44ea50a399" y="480.550067"/>
      </g>
     </g>
    </g>
    <g id="ytick_4">
     <g id="line2d_10">
      <g>
       <use style="stroke:#000000;stroke-width:1.5;" x="108" xlink:href="#m44ea50a399" y="457.340718"/>
      </g>
     </g>
    </g>
    <g id="ytick_5">
     <g id="line2d_11">
      <g>
       <use style="stroke:#000000;stroke-width:1.5;" x="108" xlink:href="#m44ea50a399" y="438.377298"/>
      </g>
     </g>
    </g>
    <g id="ytick_6">
     <g id="line2d_12">
      <g>
       <use style="stroke:#000000;stroke-width:1.5;" x="108" xlink:href="#m44ea50a399" y="422.343956"/>
      </g>
     </g>
    </g>
    <g id="ytick_7">
     <g id="line2d_13">
      <g>
       <use style="stroke:#000000;stroke-width:1.5;" x="108" xlink:href="#m44ea50a399" y="408.455242"/>
      </g>
     </g>
    </g>
    <g id="ytick_8">
     <g id="line2d_14">
      <g>
       <use style="stroke:#000000;stroke-width:1.5;" x="108" xlink:href="#m44ea50a399" y="396.204529"/>
      </g>
     </g>
    </g>
    <g id="ytick_9">
     <g id="line2d_15">
      <g>
       <use style="stroke:#000000;stroke-width:1.5;" x="108" xlink:href="#m44ea50a399" y="313.151068"/>
      </g>
     </g>
    </g>
    <g id="ytick_10">
     <g id="line2d_16">
      <g>
       <use style="stroke:#000000;stroke-width:1.5;" x="108" xlink:href="#m44ea50a399" y="270.978299"/>
      </g>
     </g>
    </g>
    <g id="ytick_11">
     <g id="line2d_17">
      <g>
       <use style="stroke:#000000;stroke-width:1.5;" x="108" xlink:href="#m44ea50a399" y="241.056243"/>
      </g>
     </g>
    </g>
    <g id="ytick_12">
     <g id="line2d_18">
      <g>
       <use style="stroke:#000000;stroke-width:1.5;" x="108" xlink:href="#m44ea50a399" y="217.846893"/>
      </g>
     </g>
    </g>
    <g id="ytick_13">
     <g id="line2d_19">
      <g>
       <use style="stroke:#000000;stroke-width:1.5;" x="108" xlink:href="#m44ea50a399" y="198.883474"/>
      </g>
     </g>
    </g>
    <g id="ytick_14">
     <g id="line2d_20">
      <g>
       <use style="stroke:#000000;stroke-width:1.5;" x="108" xlink:href="#m44ea50a399" y="182.850131"/>
      </g>
     </g>
    </g>
    <g id="ytick_15">
     <g id="line2d_21">
      <g>
       <use style="stroke:#000000;stroke-width:1.5;" x="108" xlink:href="#m44ea50a399" y="168.961418"/>
      </g>
     </g>
    </g>
    <g id="ytick_16">
     <g id="line2d_22">
      <g>
       <use style="stroke:#000000;stroke-width:1.5;" x="108" xlink:href="#m44ea50a399" y="156.710704"/>
      </g>
     </g>
    </g>
    <g id="ytick_17">
     <g id="line2d_23">
      <g>
       <use style="stroke:#000000;stroke-width:1.5;" x="108" xlink:href="#m44ea50a399" y="73.657243"/>
      </g>
     </g>
    </g>
    <g id="text_10">
     <!-- $F(x) + \psi(x)$ -->
     <defs>
      <path d="M 29.703125 32.09375 
L 39.296875 32.09375 
C 46.90625 32.09375 47.5 30.421875 47.5 27.5625 
C 47.5 26.296875 47.296875 24.921875 46.796875 22.75 
C 46.59375 22.359375 46.5 21.859375 46.5 21.671875 
C 46.5 20.984375 46.90625 20.59375 47.59375 20.59375 
C 48.40625 20.59375 48.5 20.984375 48.90625 22.5625 
L 54.703125 45.765625 
C 54.703125 46.171875 54.40625 46.765625 53.703125 46.765625 
C 52.796875 46.765625 52.703125 46.375 52.296875 44.65625 
C 50.203125 37.109375 48.203125 35 39.5 35 
L 30.40625 35 
L 36.90625 61.0625 
C 37.796875 64.59375 38 64.890625 42.09375 64.890625 
L 55.5 64.890625 
C 68 64.890625 69.796875 61.171875 69.796875 54.015625 
C 69.796875 53.421875 69.796875 51.203125 69.5 48.578125 
C 69.40625 48.1875 69.203125 46.875 69.203125 46.46875 
C 69.203125 45.65625 69.703125 45.359375 70.296875 45.359375 
C 71 45.359375 71.40625 45.765625 71.59375 47.578125 
L 73.703125 65.1875 
C 73.703125 65.484375 73.90625 66.484375 73.90625 66.6875 
C 73.90625 67.796875 73 67.796875 71.203125 67.796875 
L 23.796875 67.796875 
C 21.90625 67.796875 20.90625 67.796875 20.90625 65.984375 
C 20.90625 64.890625 21.59375 64.890625 23.296875 64.890625 
C 29.5 64.890625 29.5 64.1875 29.5 63.078125 
C 29.5 62.578125 29.40625 62.171875 29.09375 61.0625 
L 15.59375 7.3125 
C 14.703125 3.875 14.5 2.890625 7.5 2.890625 
C 5.59375 2.890625 4.59375 2.890625 4.59375 1.09375 
C 4.59375 0 5.5 0 6.09375 0 
C 8 0 10 0.1875 11.90625 0.1875 
L 24.90625 0.1875 
C 27.09375 0.1875 29.5 0 31.703125 0 
C 32.59375 0 33.796875 0 33.796875 1.796875 
C 33.796875 2.890625 33.203125 2.890625 31 2.890625 
C 23.09375 2.890625 22.90625 3.578125 22.90625 5.0625 
C 22.90625 5.546875 23.09375 6.328125 23.296875 7.015625 
z
" id="CMMI12-70"/>
      <path d="M 30.59375 -24.40625 
C 30.59375 -24.3125 30.59375 -24.109375 30.296875 -23.8125 
C 25.703125 -19.109375 13.40625 -6.296875 13.40625 24.9375 
C 13.40625 56.171875 25.5 68.875 30.40625 73.890625 
C 30.40625 73.984375 30.59375 74.1875 30.59375 74.484375 
C 30.59375 74.796875 30.296875 75 29.90625 75 
C 28.796875 75 20.296875 67.578125 15.40625 56.5625 
C 10.40625 45.453125 9 34.65625 9 25.046875 
C 9 17.828125 9.703125 5.625 15.703125 -7.296875 
C 20.5 -17.703125 28.703125 -25 29.90625 -25 
C 30.40625 -25 30.59375 -24.8125 30.59375 -24.40625 
z
" id="CMR17-40"/>
      <path d="M 47.40625 41 
C 44.203125 40.390625 43 37.984375 43 36.09375 
C 43 33.6875 44.90625 32.890625 46.296875 32.890625 
C 49.296875 32.890625 51.40625 35.484375 51.40625 38.1875 
C 51.40625 42.09375 46.59375 44 42.40625 44 
C 36.296875 44 32.90625 38.296875 32 36.390625 
C 29.703125 43.59375 23.5 44 21.703125 44 
C 11.5 44 6.09375 31.140625 6.09375 28.890625 
C 6.09375 28.484375 6.5 27.96875 7.203125 27.96875 
C 8 27.96875 8.203125 28.578125 8.40625 28.984375 
C 11.796875 40.1875 18.5 41.984375 21.40625 41.984375 
C 25.90625 41.984375 26.796875 38.09375 26.796875 35.6875 
C 26.796875 33.484375 26.203125 31.140625 25 26.21875 
L 21.59375 12.15625 
C 20.09375 6.09375 17.203125 1 11.90625 1 
C 11.40625 1 8.90625 1 6.796875 1.96875 
C 10.40625 2.59375 11.203125 5.59375 11.203125 6.796875 
C 11.203125 8.796875 9.703125 10 7.796875 10 
C 5.40625 10 2.796875 7.890625 2.796875 4.6875 
C 2.796875 0.890625 7.5 -1 11.796875 -1 
C 16.59375 -1 20 2.390625 22.09375 6.484375 
C 23.703125 1 28.703125 -1 32.40625 -1 
C 42.59375 -1 48 11.734375 48 14 
C 48 14.515625 47.59375 14.921875 47 14.921875 
C 46.09375 14.921875 46 14.40625 45.703125 13.59375 
C 43 4.6875 37.203125 1 32.703125 1 
C 29.203125 1 27.296875 3.1875 27.296875 7.296875 
C 27.296875 9.484375 27.703125 11.125 29.296875 17.90625 
L 32.796875 31.859375 
C 34.296875 37.890625 37.703125 41.984375 42.296875 41.984375 
C 42.5 41.984375 45.296875 41.984375 47.40625 41 
z
" id="CMMI12-120"/>
      <path d="M 26.296875 24.9375 
C 26.296875 32.140625 25.59375 44.359375 19.59375 57.265625 
C 14.796875 67.6875 6.59375 75 5.40625 75 
C 5.09375 75 4.703125 74.890625 4.703125 74.390625 
C 4.703125 74.1875 4.796875 74.09375 4.90625 73.890625 
C 9.703125 68.875 21.90625 56.171875 21.90625 25.046875 
C 21.90625 -6.1875 9.796875 -18.90625 4.90625 -23.90625 
C 4.796875 -24.109375 4.703125 -24.203125 4.703125 -24.40625 
C 4.703125 -24.90625 5.09375 -25 5.40625 -25 
C 6.5 -25 15 -17.609375 19.90625 -6.59375 
C 24.90625 4.515625 26.296875 15.328125 26.296875 24.9375 
z
" id="CMR17-41"/>
      <path d="M 37.703125 23 
L 64.203125 23 
C 65.59375 23 67.296875 23 67.296875 24.6875 
C 67.296875 26.5 65.703125 26.5 64.203125 26.5 
L 37.703125 26.5 
L 37.703125 52.890625 
C 37.703125 54.296875 37.703125 56 36 56 
C 34.203125 56 34.203125 54.390625 34.203125 52.890625 
L 34.203125 26.5 
L 7.703125 26.5 
C 6.296875 26.5 4.59375 26.5 4.59375 24.796875 
C 4.59375 23 6.203125 23 7.703125 23 
L 34.203125 23 
L 34.203125 -3.03125 
C 34.203125 -4.40625 34.203125 -6.109375 35.90625 -6.109375 
C 37.703125 -6.109375 37.703125 -4.515625 37.703125 -3.03125 
z
" id="CMR17-43"/>
      <path d="M 47 66.59375 
C 47 66.6875 47.40625 67.984375 47.40625 68.09375 
C 47.40625 69 46.59375 69 46.296875 69 
C 45.40625 69 45.296875 68.484375 44.90625 66.984375 
L 28.40625 1.1875 
C 20.09375 2.1875 17 6.375 17 12.359375 
C 17 14.5625 17 16.859375 21.703125 29.21875 
C 23 32.8125 23.5 34.109375 23.5 35.90625 
C 23.5 40.40625 20.296875 44 15.59375 44 
C 6.40625 44 2.703125 29.53125 2.703125 28.734375 
C 2.703125 28.328125 3.09375 27.828125 3.796875 27.828125 
C 4.703125 27.828125 4.796875 28.234375 5.203125 29.625 
C 7.59375 38.296875 11.59375 41.984375 15.296875 41.984375 
C 16.203125 41.984375 17.90625 41.890625 17.90625 38.703125 
C 17.90625 38.296875 17.90625 36.109375 16.203125 31.71875 
C 10.796875 17.546875 10.796875 15.359375 10.796875 13.0625 
C 10.796875 3.484375 18.796875 -0.203125 27.796875 -0.90625 
C 27 -3.9375 26.296875 -7.0625 25.5 -10.09375 
C 23.90625 -15.953125 23.203125 -18.703125 23.203125 -19.109375 
C 23.203125 -20 24 -20 24.296875 -20 
C 24.5 -20 24.90625 -20 25.09375 -19.609375 
C 25.5 -19.203125 29.59375 -2.765625 30 -1 
C 33.703125 -1 41.59375 -1 50.59375 8.28125 
C 53.90625 11.859375 56.90625 16.453125 58.59375 20.75 
C 59.59375 23.34375 62 32.21875 62 37.3125 
C 62 43.296875 59 44 58 44 
C 55.59375 44 53.40625 41.59375 53.40625 39.59375 
C 53.40625 38.40625 54.09375 37.703125 54.5 37.3125 
C 55.40625 36.40625 58.09375 33.71875 58.09375 28.53125 
C 58.09375 24.9375 56.09375 17.546875 49.703125 10.375 
C 41.296875 1 33.59375 1 30.59375 1 
z
" id="CMMI12-32"/>
     </defs>
     <g transform="translate(61.430707 337.727406)rotate(-90)scale(0.2 -0.2)">
      <use transform="scale(0.996264)" xlink:href="#CMMI12-70"/>
      <use transform="translate(76.696793 0)scale(0.996264)" xlink:href="#CMR17-40"/>
      <use transform="translate(111.97756 0)scale(0.996264)" xlink:href="#CMMI12-120"/>
      <use transform="translate(167.41162 0)scale(0.996264)" xlink:href="#CMR17-41"/>
      <use transform="translate(224.831595 0)scale(0.996264)" xlink:href="#CMR17-43"/>
      <use transform="translate(318.68559 0)scale(0.996264)" xlink:href="#CMMI12-32"/>
      <use transform="translate(385.67907 0)scale(0.996264)" xlink:href="#CMR17-40"/>
      <use transform="translate(420.959837 0)scale(0.996264)" xlink:href="#CMMI12-120"/>
      <use transform="translate(476.393897 0)scale(0.996264)" xlink:href="#CMR17-41"/>
     </g>
    </g>
   </g>
   <g id="LineCollection_1">
    <path clip-path="url(#p52910d430f)" d="M 138.436364 109.253589 
L 138.436364 88.887273 
" style="fill:none;stroke:#ff0000;"/>
    <path clip-path="url(#p52910d430f)" d="M 170.474641 155.416629 
L 170.474641 113.8871 
" style="fill:none;stroke:#ff0000;"/>
    <path clip-path="url(#p52910d430f)" d="M 202.512919 225.584277 
L 202.512919 139.942915 
" style="fill:none;stroke:#ff0000;"/>
    <path clip-path="url(#p52910d430f)" d="M 234.551196 303.418915 
L 234.551196 204.823476 
" style="fill:none;stroke:#ff0000;"/>
    <path clip-path="url(#p52910d430f)" d="M 266.589474 411.168507 
L 266.589474 368.674603 
" style="fill:none;stroke:#ff0000;"/>
    <path clip-path="url(#p52910d430f)" d="M 298.627751 424.031429 
L 298.627751 397.75936 
" style="fill:none;stroke:#ff0000;"/>
    <path clip-path="url(#p52910d430f)" d="M 330.666029 426.902666 
L 330.666029 398.813184 
" style="fill:none;stroke:#ff0000;"/>
    <path clip-path="url(#p52910d430f)" d="M 362.704306 428.824367 
L 362.704306 406.341835 
" style="fill:none;stroke:#ff0000;"/>
    <path clip-path="url(#p52910d430f)" d="M 394.742584 429.784765 
L 394.742584 408.708897 
" style="fill:none;stroke:#ff0000;"/>
    <path clip-path="url(#p52910d430f)" d="M 426.780861 430.938431 
L 426.780861 410.338634 
" style="fill:none;stroke:#ff0000;"/>
    <path clip-path="url(#p52910d430f)" d="M 458.819139 431.760566 
L 458.819139 411.121014 
" style="fill:none;stroke:#ff0000;"/>
    <path clip-path="url(#p52910d430f)" d="M 490.857416 432.159534 
L 490.857416 411.50302 
" style="fill:none;stroke:#ff0000;"/>
    <path clip-path="url(#p52910d430f)" d="M 522.895694 432.651884 
L 522.895694 412.213261 
" style="fill:none;stroke:#ff0000;"/>
    <path clip-path="url(#p52910d430f)" d="M 554.933971 432.90148 
L 554.933971 412.50444 
" style="fill:none;stroke:#ff0000;"/>
    <path clip-path="url(#p52910d430f)" d="M 586.972249 433.044042 
L 586.972249 412.6446 
" style="fill:none;stroke:#ff0000;"/>
    <path clip-path="url(#p52910d430f)" d="M 619.010526 433.190169 
L 619.010526 412.776328 
" style="fill:none;stroke:#ff0000;"/>
    <path clip-path="url(#p52910d430f)" d="M 651.048804 433.275603 
L 651.048804 412.853597 
" style="fill:none;stroke:#ff0000;"/>
    <path clip-path="url(#p52910d430f)" d="M 683.087081 433.39508 
L 683.087081 412.976653 
" style="fill:none;stroke:#ff0000;"/>
    <path clip-path="url(#p52910d430f)" d="M 715.125359 433.527897 
L 715.125359 413.112522 
" style="fill:none;stroke:#ff0000;"/>
    <path clip-path="url(#p52910d430f)" d="M 747.163636 433.556563 
L 747.163636 413.140458 
" style="fill:none;stroke:#ff0000;"/>
   </g>
   <g id="LineCollection_2">
    <path clip-path="url(#p52910d430f)" d="M 138.436364 134.603414 
L 138.436364 109.253589 
" style="fill:none;stroke:#ff0000;"/>
    <path clip-path="url(#p52910d430f)" d="M 170.474641 225.605265 
L 170.474641 155.416629 
" style="fill:none;stroke:#ff0000;"/>
    <path clip-path="url(#p52910d430f)" d="M 202.512919 577 
L 202.512919 225.584277 
" style="fill:none;stroke:#ff0000;"/>
    <path clip-path="url(#p52910d430f)" d="M 234.551196 577 
L 234.551196 303.418915 
" style="fill:none;stroke:#ff0000;"/>
    <path clip-path="url(#p52910d430f)" d="M 266.589474 484.232727 
L 266.589474 411.168507 
" style="fill:none;stroke:#ff0000;"/>
    <path clip-path="url(#p52910d430f)" d="M 298.627751 459.267375 
L 298.627751 424.031429 
" style="fill:none;stroke:#ff0000;"/>
    <path clip-path="url(#p52910d430f)" d="M 330.666029 465.504397 
L 330.666029 426.902666 
" style="fill:none;stroke:#ff0000;"/>
    <path clip-path="url(#p52910d430f)" d="M 362.704306 457.546235 
L 362.704306 428.824367 
" style="fill:none;stroke:#ff0000;"/>
    <path clip-path="url(#p52910d430f)" d="M 394.742584 456.245478 
L 394.742584 429.784765 
" style="fill:none;stroke:#ff0000;"/>
    <path clip-path="url(#p52910d430f)" d="M 426.780861 456.651655 
L 426.780861 430.938431 
" style="fill:none;stroke:#ff0000;"/>
    <path clip-path="url(#p52910d430f)" d="M 458.819139 457.535874 
L 458.819139 431.760566 
" style="fill:none;stroke:#ff0000;"/>
    <path clip-path="url(#p52910d430f)" d="M 490.857416 457.96135 
L 490.857416 432.159534 
" style="fill:none;stroke:#ff0000;"/>
    <path clip-path="url(#p52910d430f)" d="M 522.895694 458.114027 
L 522.895694 432.651884 
" style="fill:none;stroke:#ff0000;"/>
    <path clip-path="url(#p52910d430f)" d="M 554.933971 458.299005 
L 554.933971 432.90148 
" style="fill:none;stroke:#ff0000;"/>
    <path clip-path="url(#p52910d430f)" d="M 586.972249 458.445298 
L 586.972249 433.044042 
" style="fill:none;stroke:#ff0000;"/>
    <path clip-path="url(#p52910d430f)" d="M 619.010526 458.613794 
L 619.010526 433.190169 
" style="fill:none;stroke:#ff0000;"/>
    <path clip-path="url(#p52910d430f)" d="M 651.048804 458.711917 
L 651.048804 433.275603 
" style="fill:none;stroke:#ff0000;"/>
    <path clip-path="url(#p52910d430f)" d="M 683.087081 458.825833 
L 683.087081 433.39508 
" style="fill:none;stroke:#ff0000;"/>
    <path clip-path="url(#p52910d430f)" d="M 715.125359 458.953905 
L 715.125359 433.527897 
" style="fill:none;stroke:#ff0000;"/>
    <path clip-path="url(#p52910d430f)" d="M 747.163636 458.983707 
L 747.163636 433.556563 
" style="fill:none;stroke:#ff0000;"/>
   </g>
   <g id="LineCollection_3">
    <path clip-path="url(#p52910d430f)" d="M 138.436364 109.253589 
L 138.436364 88.887273 
" style="fill:none;stroke:#0000ff;"/>
    <path clip-path="url(#p52910d430f)" d="M 170.474641 281.33726 
L 170.474641 260.009049 
" style="fill:none;stroke:#0000ff;"/>
    <path clip-path="url(#p52910d430f)" d="M 202.512919 296.043836 
L 202.512919 275.128176 
" style="fill:none;stroke:#0000ff;"/>
    <path clip-path="url(#p52910d430f)" d="M 234.551196 310.168886 
L 234.551196 289.515459 
" style="fill:none;stroke:#0000ff;"/>
    <path clip-path="url(#p52910d430f)" d="M 266.589474 322.077609 
L 266.589474 301.511991 
" style="fill:none;stroke:#0000ff;"/>
    <path clip-path="url(#p52910d430f)" d="M 298.627751 331.359524 
L 298.627751 310.713627 
" style="fill:none;stroke:#0000ff;"/>
    <path clip-path="url(#p52910d430f)" d="M 330.666029 339.549694 
L 330.666029 319.071166 
" style="fill:none;stroke:#0000ff;"/>
    <path clip-path="url(#p52910d430f)" d="M 362.704306 346.607771 
L 362.704306 326.116145 
" style="fill:none;stroke:#0000ff;"/>
    <path clip-path="url(#p52910d430f)" d="M 394.742584 352.65224 
L 394.742584 332.147423 
" style="fill:none;stroke:#0000ff;"/>
    <path clip-path="url(#p52910d430f)" d="M 426.780861 359.356004 
L 426.780861 337.483611 
" style="fill:none;stroke:#0000ff;"/>
    <path clip-path="url(#p52910d430f)" d="M 458.819139 392.840107 
L 458.819139 366.597542 
" style="fill:none;stroke:#0000ff;"/>
    <path clip-path="url(#p52910d430f)" d="M 490.857416 413.233141 
L 490.857416 391.406353 
" style="fill:none;stroke:#0000ff;"/>
    <path clip-path="url(#p52910d430f)" d="M 522.895694 421.215098 
L 522.895694 400.675154 
" style="fill:none;stroke:#0000ff;"/>
    <path clip-path="url(#p52910d430f)" d="M 554.933971 424.047814 
L 554.933971 403.644964 
" style="fill:none;stroke:#0000ff;"/>
    <path clip-path="url(#p52910d430f)" d="M 586.972249 424.92893 
L 586.972249 404.554696 
" style="fill:none;stroke:#0000ff;"/>
    <path clip-path="url(#p52910d430f)" d="M 619.010526 425.033158 
L 619.010526 404.657313 
" style="fill:none;stroke:#0000ff;"/>
    <path clip-path="url(#p52910d430f)" d="M 651.048804 425.126486 
L 651.048804 404.752082 
" style="fill:none;stroke:#0000ff;"/>
    <path clip-path="url(#p52910d430f)" d="M 683.087081 424.979976 
L 683.087081 404.595676 
" style="fill:none;stroke:#0000ff;"/>
    <path clip-path="url(#p52910d430f)" d="M 715.125359 425.033701 
L 715.125359 404.650307 
" style="fill:none;stroke:#0000ff;"/>
    <path clip-path="url(#p52910d430f)" d="M 747.163636 424.937038 
L 747.163636 404.562086 
" style="fill:none;stroke:#0000ff;"/>
   </g>
   <g id="LineCollection_4">
    <path clip-path="url(#p52910d430f)" d="M 138.436364 134.603414 
L 138.436364 109.253589 
" style="fill:none;stroke:#0000ff;"/>
    <path clip-path="url(#p52910d430f)" d="M 170.474641 308.19777 
L 170.474641 281.33726 
" style="fill:none;stroke:#0000ff;"/>
    <path clip-path="url(#p52910d430f)" d="M 202.512919 322.252021 
L 202.512919 296.043836 
" style="fill:none;stroke:#0000ff;"/>
    <path clip-path="url(#p52910d430f)" d="M 234.551196 335.965877 
L 234.551196 310.168886 
" style="fill:none;stroke:#0000ff;"/>
    <path clip-path="url(#p52910d430f)" d="M 266.589474 347.737505 
L 266.589474 322.077609 
" style="fill:none;stroke:#0000ff;"/>
    <path clip-path="url(#p52910d430f)" d="M 298.627751 357.144747 
L 298.627751 331.359524 
" style="fill:none;stroke:#0000ff;"/>
    <path clip-path="url(#p52910d430f)" d="M 330.666029 365.073908 
L 330.666029 339.549694 
" style="fill:none;stroke:#0000ff;"/>
    <path clip-path="url(#p52910d430f)" d="M 362.704306 372.152374 
L 362.704306 346.607771 
" style="fill:none;stroke:#0000ff;"/>
    <path clip-path="url(#p52910d430f)" d="M 394.742584 378.217381 
L 394.742584 352.65224 
" style="fill:none;stroke:#0000ff;"/>
    <path clip-path="url(#p52910d430f)" d="M 426.780861 387.087294 
L 426.780861 359.356004 
" style="fill:none;stroke:#0000ff;"/>
    <path clip-path="url(#p52910d430f)" d="M 458.819139 428.022776 
L 458.819139 392.840107 
" style="fill:none;stroke:#0000ff;"/>
    <path clip-path="url(#p52910d430f)" d="M 490.857416 440.890998 
L 490.857416 413.233141 
" style="fill:none;stroke:#0000ff;"/>
    <path clip-path="url(#p52910d430f)" d="M 522.895694 446.834965 
L 522.895694 421.215098 
" style="fill:none;stroke:#0000ff;"/>
    <path clip-path="url(#p52910d430f)" d="M 554.933971 449.454364 
L 554.933971 424.047814 
" style="fill:none;stroke:#0000ff;"/>
    <path clip-path="url(#p52910d430f)" d="M 586.972249 450.291044 
L 586.972249 424.92893 
" style="fill:none;stroke:#0000ff;"/>
    <path clip-path="url(#p52910d430f)" d="M 619.010526 450.397772 
L 619.010526 425.033158 
" style="fill:none;stroke:#0000ff;"/>
    <path clip-path="url(#p52910d430f)" d="M 651.048804 450.488865 
L 651.048804 425.126486 
" style="fill:none;stroke:#0000ff;"/>
    <path clip-path="url(#p52910d430f)" d="M 683.087081 450.357717 
L 683.087081 424.979976 
" style="fill:none;stroke:#0000ff;"/>
    <path clip-path="url(#p52910d430f)" d="M 715.125359 450.410035 
L 715.125359 425.033701 
" style="fill:none;stroke:#0000ff;"/>
    <path clip-path="url(#p52910d430f)" d="M 747.163636 450.300266 
L 747.163636 424.937038 
" style="fill:none;stroke:#0000ff;"/>
   </g>
   <g id="LineCollection_5">
    <path clip-path="url(#p52910d430f)" d="M 138.436364 109.253589 
L 138.436364 88.887273 
" style="fill:none;stroke:#008000;"/>
    <path clip-path="url(#p52910d430f)" d="M 170.474641 114.815891 
L 170.474641 94.447104 
" style="fill:none;stroke:#008000;"/>
    <path clip-path="url(#p52910d430f)" d="M 202.512919 124.024708 
L 202.512919 103.622093 
" style="fill:none;stroke:#008000;"/>
    <path clip-path="url(#p52910d430f)" d="M 234.551196 135.86913 
L 234.551196 115.413392 
" style="fill:none;stroke:#008000;"/>
    <path clip-path="url(#p52910d430f)" d="M 266.589474 148.879766 
L 266.589474 128.358718 
" style="fill:none;stroke:#008000;"/>
    <path clip-path="url(#p52910d430f)" d="M 298.627751 167.500807 
L 298.627751 146.635915 
" style="fill:none;stroke:#008000;"/>
    <path clip-path="url(#p52910d430f)" d="M 330.666029 191.019048 
L 330.666029 169.583334 
" style="fill:none;stroke:#008000;"/>
    <path clip-path="url(#p52910d430f)" d="M 362.704306 221.144623 
L 362.704306 198.622808 
" style="fill:none;stroke:#008000;"/>
    <path clip-path="url(#p52910d430f)" d="M 394.742584 257.283199 
L 394.742584 232.419831 
" style="fill:none;stroke:#008000;"/>
    <path clip-path="url(#p52910d430f)" d="M 426.780861 297.86939 
L 426.780861 271.833436 
" style="fill:none;stroke:#008000;"/>
    <path clip-path="url(#p52910d430f)" d="M 458.819139 344.038925 
L 458.819139 316.721611 
" style="fill:none;stroke:#008000;"/>
    <path clip-path="url(#p52910d430f)" d="M 490.857416 388.684614 
L 490.857416 358.250936 
" style="fill:none;stroke:#008000;"/>
    <path clip-path="url(#p52910d430f)" d="M 522.895694 417.898386 
L 522.895694 394.042437 
" style="fill:none;stroke:#008000;"/>
    <path clip-path="url(#p52910d430f)" d="M 554.933971 430.987116 
L 554.933971 410.572452 
" style="fill:none;stroke:#008000;"/>
    <path clip-path="url(#p52910d430f)" d="M 586.972249 426.429743 
L 586.972249 405.632987 
" style="fill:none;stroke:#008000;"/>
    <path clip-path="url(#p52910d430f)" d="M 619.010526 415.983258 
L 619.010526 395.045486 
" style="fill:none;stroke:#008000;"/>
    <path clip-path="url(#p52910d430f)" d="M 651.048804 408.958763 
L 651.048804 388.400534 
" style="fill:none;stroke:#008000;"/>
    <path clip-path="url(#p52910d430f)" d="M 683.087081 406.379471 
L 683.087081 385.994165 
" style="fill:none;stroke:#008000;"/>
    <path clip-path="url(#p52910d430f)" d="M 715.125359 408.865681 
L 715.125359 388.340717 
" style="fill:none;stroke:#008000;"/>
    <path clip-path="url(#p52910d430f)" d="M 747.163636 415.13082 
L 747.163636 394.382819 
" style="fill:none;stroke:#008000;"/>
   </g>
   <g id="LineCollection_6">
    <path clip-path="url(#p52910d430f)" d="M 138.436364 134.603414 
L 138.436364 109.253589 
" style="fill:none;stroke:#008000;"/>
    <path clip-path="url(#p52910d430f)" d="M 170.474641 140.16955 
L 170.474641 114.815891 
" style="fill:none;stroke:#008000;"/>
    <path clip-path="url(#p52910d430f)" d="M 202.512919 149.430894 
L 202.512919 124.024708 
" style="fill:none;stroke:#008000;"/>
    <path clip-path="url(#p52910d430f)" d="M 234.551196 161.357889 
L 234.551196 135.86913 
" style="fill:none;stroke:#008000;"/>
    <path clip-path="url(#p52910d430f)" d="M 266.589474 174.47019 
L 266.589474 148.879766 
" style="fill:none;stroke:#008000;"/>
    <path clip-path="url(#p52910d430f)" d="M 298.627751 193.629176 
L 298.627751 167.500807 
" style="fill:none;stroke:#008000;"/>
    <path clip-path="url(#p52910d430f)" d="M 330.666029 218.050642 
L 330.666029 191.019048 
" style="fill:none;stroke:#008000;"/>
    <path clip-path="url(#p52910d430f)" d="M 362.704306 249.930793 
L 362.704306 221.144623 
" style="fill:none;stroke:#008000;"/>
    <path clip-path="url(#p52910d430f)" d="M 394.742584 290.021779 
L 394.742584 257.283199 
" style="fill:none;stroke:#008000;"/>
    <path clip-path="url(#p52910d430f)" d="M 426.780861 332.680161 
L 426.780861 297.86939 
" style="fill:none;stroke:#008000;"/>
    <path clip-path="url(#p52910d430f)" d="M 458.819139 381.190095 
L 458.819139 344.038925 
" style="fill:none;stroke:#008000;"/>
    <path clip-path="url(#p52910d430f)" d="M 490.857416 431.888242 
L 490.857416 388.684614 
" style="fill:none;stroke:#008000;"/>
    <path clip-path="url(#p52910d430f)" d="M 522.895694 448.907121 
L 522.895694 417.898386 
" style="fill:none;stroke:#008000;"/>
    <path clip-path="url(#p52910d430f)" d="M 554.933971 456.412019 
L 554.933971 430.987116 
" style="fill:none;stroke:#008000;"/>
    <path clip-path="url(#p52910d430f)" d="M 586.972249 452.451151 
L 586.972249 426.429743 
" style="fill:none;stroke:#008000;"/>
    <path clip-path="url(#p52910d430f)" d="M 619.010526 442.226238 
L 619.010526 415.983258 
" style="fill:none;stroke:#008000;"/>
    <path clip-path="url(#p52910d430f)" d="M 651.048804 434.607138 
L 651.048804 408.958763 
" style="fill:none;stroke:#008000;"/>
    <path clip-path="url(#p52910d430f)" d="M 683.087081 431.758774 
L 683.087081 406.379471 
" style="fill:none;stroke:#008000;"/>
    <path clip-path="url(#p52910d430f)" d="M 715.125359 434.462204 
L 715.125359 408.865681 
" style="fill:none;stroke:#008000;"/>
    <path clip-path="url(#p52910d430f)" d="M 747.163636 441.0758 
L 747.163636 415.13082 
" style="fill:none;stroke:#008000;"/>
   </g>
   <g id="line2d_24">
    <defs>
     <path d="M 4.5 0 
L 0 -6.75 
L -4.5 -0 
" id="m84991b6dee" style="stroke:#ff0000;stroke-linejoin:miter;"/>
    </defs>
    <g clip-path="url(#p52910d430f)">
     <use style="fill:#ff0000;stroke:#ff0000;stroke-linejoin:miter;" x="138.436364" xlink:href="#m84991b6dee" y="88.887273"/>
     <use style="fill:#ff0000;stroke:#ff0000;stroke-linejoin:miter;" x="170.474641" xlink:href="#m84991b6dee" y="113.8871"/>
     <use style="fill:#ff0000;stroke:#ff0000;stroke-linejoin:miter;" x="202.512919" xlink:href="#m84991b6dee" y="139.942915"/>
     <use style="fill:#ff0000;stroke:#ff0000;stroke-linejoin:miter;" x="234.551196" xlink:href="#m84991b6dee" y="204.823476"/>
     <use style="fill:#ff0000;stroke:#ff0000;stroke-linejoin:miter;" x="266.589474" xlink:href="#m84991b6dee" y="368.674603"/>
     <use style="fill:#ff0000;stroke:#ff0000;stroke-linejoin:miter;" x="298.627751" xlink:href="#m84991b6dee" y="397.75936"/>
     <use style="fill:#ff0000;stroke:#ff0000;stroke-linejoin:miter;" x="330.666029" xlink:href="#m84991b6dee" y="398.813184"/>
     <use style="fill:#ff0000;stroke:#ff0000;stroke-linejoin:miter;" x="362.704306" xlink:href="#m84991b6dee" y="406.341835"/>
     <use style="fill:#ff0000;stroke:#ff0000;stroke-linejoin:miter;" x="394.742584" xlink:href="#m84991b6dee" y="408.708897"/>
     <use style="fill:#ff0000;stroke:#ff0000;stroke-linejoin:miter;" x="426.780861" xlink:href="#m84991b6dee" y="410.338634"/>
     <use style="fill:#ff0000;stroke:#ff0000;stroke-linejoin:miter;" x="458.819139" xlink:href="#m84991b6dee" y="411.121014"/>
     <use style="fill:#ff0000;stroke:#ff0000;stroke-linejoin:miter;" x="490.857416" xlink:href="#m84991b6dee" y="411.50302"/>
     <use style="fill:#ff0000;stroke:#ff0000;stroke-linejoin:miter;" x="522.895694" xlink:href="#m84991b6dee" y="412.213261"/>
     <use style="fill:#ff0000;stroke:#ff0000;stroke-linejoin:miter;" x="554.933971" xlink:href="#m84991b6dee" y="412.50444"/>
     <use style="fill:#ff0000;stroke:#ff0000;stroke-linejoin:miter;" x="586.972249" xlink:href="#m84991b6dee" y="412.6446"/>
     <use style="fill:#ff0000;stroke:#ff0000;stroke-linejoin:miter;" x="619.010526" xlink:href="#m84991b6dee" y="412.776328"/>
     <use style="fill:#ff0000;stroke:#ff0000;stroke-linejoin:miter;" x="651.048804" xlink:href="#m84991b6dee" y="412.853597"/>
     <use style="fill:#ff0000;stroke:#ff0000;stroke-linejoin:miter;" x="683.087081" xlink:href="#m84991b6dee" y="412.976653"/>
     <use style="fill:#ff0000;stroke:#ff0000;stroke-linejoin:miter;" x="715.125359" xlink:href="#m84991b6dee" y="413.112522"/>
     <use style="fill:#ff0000;stroke:#ff0000;stroke-linejoin:miter;" x="747.163636" xlink:href="#m84991b6dee" y="413.140458"/>
    </g>
   </g>
   <g id="line2d_25">
    <defs>
     <path d="M -4.5 0 
L 0 6.75 
L 4.5 0 
" id="m8e95b14469" style="stroke:#ff0000;stroke-linejoin:miter;"/>
    </defs>
    <g clip-path="url(#p52910d430f)">
     <use style="fill:#ff0000;stroke:#ff0000;stroke-linejoin:miter;" x="138.436364" xlink:href="#m8e95b14469" y="134.603414"/>
     <use style="fill:#ff0000;stroke:#ff0000;stroke-linejoin:miter;" x="170.474641" xlink:href="#m8e95b14469" y="225.605265"/>
     <use style="fill:#ff0000;stroke:#ff0000;stroke-linejoin:miter;" x="175.988834" xlink:href="#m8e95b14469" y="41473"/>
     <use style="fill:#ff0000;stroke:#ff0000;stroke-linejoin:miter;" x="261.103936" xlink:href="#m8e95b14469" y="41473"/>
     <use style="fill:#ff0000;stroke:#ff0000;stroke-linejoin:miter;" x="266.589474" xlink:href="#m8e95b14469" y="484.232727"/>
     <use style="fill:#ff0000;stroke:#ff0000;stroke-linejoin:miter;" x="298.627751" xlink:href="#m8e95b14469" y="459.267375"/>
     <use style="fill:#ff0000;stroke:#ff0000;stroke-linejoin:miter;" x="330.666029" xlink:href="#m8e95b14469" y="465.504397"/>
     <use style="fill:#ff0000;stroke:#ff0000;stroke-linejoin:miter;" x="362.704306" xlink:href="#m8e95b14469" y="457.546235"/>
     <use style="fill:#ff0000;stroke:#ff0000;stroke-linejoin:miter;" x="394.742584" xlink:href="#m8e95b14469" y="456.245478"/>
     <use style="fill:#ff0000;stroke:#ff0000;stroke-linejoin:miter;" x="426.780861" xlink:href="#m8e95b14469" y="456.651655"/>
     <use style="fill:#ff0000;stroke:#ff0000;stroke-linejoin:miter;" x="458.819139" xlink:href="#m8e95b14469" y="457.535874"/>
     <use style="fill:#ff0000;stroke:#ff0000;stroke-linejoin:miter;" x="490.857416" xlink:href="#m8e95b14469" y="457.96135"/>
     <use style="fill:#ff0000;stroke:#ff0000;stroke-linejoin:miter;" x="522.895694" xlink:href="#m8e95b14469" y="458.114027"/>
     <use style="fill:#ff0000;stroke:#ff0000;stroke-linejoin:miter;" x="554.933971" xlink:href="#m8e95b14469" y="458.299005"/>
     <use style="fill:#ff0000;stroke:#ff0000;stroke-linejoin:miter;" x="586.972249" xlink:href="#m8e95b14469" y="458.445298"/>
     <use style="fill:#ff0000;stroke:#ff0000;stroke-linejoin:miter;" x="619.010526" xlink:href="#m8e95b14469" y="458.613794"/>
     <use style="fill:#ff0000;stroke:#ff0000;stroke-linejoin:miter;" x="651.048804" xlink:href="#m8e95b14469" y="458.711917"/>
     <use style="fill:#ff0000;stroke:#ff0000;stroke-linejoin:miter;" x="683.087081" xlink:href="#m8e95b14469" y="458.825833"/>
     <use style="fill:#ff0000;stroke:#ff0000;stroke-linejoin:miter;" x="715.125359" xlink:href="#m8e95b14469" y="458.953905"/>
     <use style="fill:#ff0000;stroke:#ff0000;stroke-linejoin:miter;" x="747.163636" xlink:href="#m8e95b14469" y="458.983707"/>
    </g>
   </g>
   <g id="line2d_26">
    <defs>
     <path d="M 4.5 0 
L 0 -6.75 
L -4.5 -0 
" id="mdce11d594f" style="stroke:#0000ff;stroke-linejoin:miter;"/>
    </defs>
    <g clip-path="url(#p52910d430f)">
     <use style="fill:#0000ff;stroke:#0000ff;stroke-linejoin:miter;" x="138.436364" xlink:href="#mdce11d594f" y="88.887273"/>
     <use style="fill:#0000ff;stroke:#0000ff;stroke-linejoin:miter;" x="170.474641" xlink:href="#mdce11d594f" y="260.009049"/>
     <use style="fill:#0000ff;stroke:#0000ff;stroke-linejoin:miter;" x="202.512919" xlink:href="#mdce11d594f" y="275.128176"/>
     <use style="fill:#0000ff;stroke:#0000ff;stroke-linejoin:miter;" x="234.551196" xlink:href="#mdce11d594f" y="289.515459"/>
     <use style="fill:#0000ff;stroke:#0000ff;stroke-linejoin:miter;" x="266.589474" xlink:href="#mdce11d594f" y="301.511991"/>
     <use style="fill:#0000ff;stroke:#0000ff;stroke-linejoin:miter;" x="298.627751" xlink:href="#mdce11d594f" y="310.713627"/>
     <use style="fill:#0000ff;stroke:#0000ff;stroke-linejoin:miter;" x="330.666029" xlink:href="#mdce11d594f" y="319.071166"/>
     <use style="fill:#0000ff;stroke:#0000ff;stroke-linejoin:miter;" x="362.704306" xlink:href="#mdce11d594f" y="326.116145"/>
     <use style="fill:#0000ff;stroke:#0000ff;stroke-linejoin:miter;" x="394.742584" xlink:href="#mdce11d594f" y="332.147423"/>
     <use style="fill:#0000ff;stroke:#0000ff;stroke-linejoin:miter;" x="426.780861" xlink:href="#mdce11d594f" y="337.483611"/>
     <use style="fill:#0000ff;stroke:#0000ff;stroke-linejoin:miter;" x="458.819139" xlink:href="#mdce11d594f" y="366.597542"/>
     <use style="fill:#0000ff;stroke:#0000ff;stroke-linejoin:miter;" x="490.857416" xlink:href="#mdce11d594f" y="391.406353"/>
     <use style="fill:#0000ff;stroke:#0000ff;stroke-linejoin:miter;" x="522.895694" xlink:href="#mdce11d594f" y="400.675154"/>
     <use style="fill:#0000ff;stroke:#0000ff;stroke-linejoin:miter;" x="554.933971" xlink:href="#mdce11d594f" y="403.644964"/>
     <use style="fill:#0000ff;stroke:#0000ff;stroke-linejoin:miter;" x="586.972249" xlink:href="#mdce11d594f" y="404.554696"/>
     <use style="fill:#0000ff;stroke:#0000ff;stroke-linejoin:miter;" x="619.010526" xlink:href="#mdce11d594f" y="404.657313"/>
     <use style="fill:#0000ff;stroke:#0000ff;stroke-linejoin:miter;" x="651.048804" xlink:href="#mdce11d594f" y="404.752082"/>
     <use style="fill:#0000ff;stroke:#0000ff;stroke-linejoin:miter;" x="683.087081" xlink:href="#mdce11d594f" y="404.595676"/>
     <use style="fill:#0000ff;stroke:#0000ff;stroke-linejoin:miter;" x="715.125359" xlink:href="#mdce11d594f" y="404.650307"/>
     <use style="fill:#0000ff;stroke:#0000ff;stroke-linejoin:miter;" x="747.163636" xlink:href="#mdce11d594f" y="404.562086"/>
    </g>
   </g>
   <g id="line2d_27">
    <defs>
     <path d="M -4.5 0 
L 0 6.75 
L 4.5 0 
" id="mbeff845f2d" style="stroke:#0000ff;stroke-linejoin:miter;"/>
    </defs>
    <g clip-path="url(#p52910d430f)">
     <use style="fill:#0000ff;stroke:#0000ff;stroke-linejoin:miter;" x="138.436364" xlink:href="#mbeff845f2d" y="134.603414"/>
     <use style="fill:#0000ff;stroke:#0000ff;stroke-linejoin:miter;" x="170.474641" xlink:href="#mbeff845f2d" y="308.19777"/>
     <use style="fill:#0000ff;stroke:#0000ff;stroke-linejoin:miter;" x="202.512919" xlink:href="#mbeff845f2d" y="322.252021"/>
     <use style="fill:#0000ff;stroke:#0000ff;stroke-linejoin:miter;" x="234.551196" xlink:href="#mbeff845f2d" y="335.965877"/>
     <use style="fill:#0000ff;stroke:#0000ff;stroke-linejoin:miter;" x="266.589474" xlink:href="#mbeff845f2d" y="347.737505"/>
     <use style="fill:#0000ff;stroke:#0000ff;stroke-linejoin:miter;" x="298.627751" xlink:href="#mbeff845f2d" y="357.144747"/>
     <use style="fill:#0000ff;stroke:#0000ff;stroke-linejoin:miter;" x="330.666029" xlink:href="#mbeff845f2d" y="365.073908"/>
     <use style="fill:#0000ff;stroke:#0000ff;stroke-linejoin:miter;" x="362.704306" xlink:href="#mbeff845f2d" y="372.152374"/>
     <use style="fill:#0000ff;stroke:#0000ff;stroke-linejoin:miter;" x="394.742584" xlink:href="#mbeff845f2d" y="378.217381"/>
     <use style="fill:#0000ff;stroke:#0000ff;stroke-linejoin:miter;" x="426.780861" xlink:href="#mbeff845f2d" y="387.087294"/>
     <use style="fill:#0000ff;stroke:#0000ff;stroke-linejoin:miter;" x="458.819139" xlink:href="#mbeff845f2d" y="428.022776"/>
     <use style="fill:#0000ff;stroke:#0000ff;stroke-linejoin:miter;" x="490.857416" xlink:href="#mbeff845f2d" y="440.890998"/>
     <use style="fill:#0000ff;stroke:#0000ff;stroke-linejoin:miter;" x="522.895694" xlink:href="#mbeff845f2d" y="446.834965"/>
     <use style="fill:#0000ff;stroke:#0000ff;stroke-linejoin:miter;" x="554.933971" xlink:href="#mbeff845f2d" y="449.454364"/>
     <use style="fill:#0000ff;stroke:#0000ff;stroke-linejoin:miter;" x="586.972249" xlink:href="#mbeff845f2d" y="450.291044"/>
     <use style="fill:#0000ff;stroke:#0000ff;stroke-linejoin:miter;" x="619.010526" xlink:href="#mbeff845f2d" y="450.397772"/>
     <use style="fill:#0000ff;stroke:#0000ff;stroke-linejoin:miter;" x="651.048804" xlink:href="#mbeff845f2d" y="450.488865"/>
     <use style="fill:#0000ff;stroke:#0000ff;stroke-linejoin:miter;" x="683.087081" xlink:href="#mbeff845f2d" y="450.357717"/>
     <use style="fill:#0000ff;stroke:#0000ff;stroke-linejoin:miter;" x="715.125359" xlink:href="#mbeff845f2d" y="450.410035"/>
     <use style="fill:#0000ff;stroke:#0000ff;stroke-linejoin:miter;" x="747.163636" xlink:href="#mbeff845f2d" y="450.300266"/>
    </g>
   </g>
   <g id="line2d_28">
    <defs>
     <path d="M 4.5 0 
L 0 -6.75 
L -4.5 -0 
" id="m298669c6dd" style="stroke:#008000;stroke-linejoin:miter;"/>
    </defs>
    <g clip-path="url(#p52910d430f)">
     <use style="fill:#008000;stroke:#008000;stroke-linejoin:miter;" x="138.436364" xlink:href="#m298669c6dd" y="88.887273"/>
     <use style="fill:#008000;stroke:#008000;stroke-linejoin:miter;" x="170.474641" xlink:href="#m298669c6dd" y="94.447104"/>
     <use style="fill:#008000;stroke:#008000;stroke-linejoin:miter;" x="202.512919" xlink:href="#m298669c6dd" y="103.622093"/>
     <use style="fill:#008000;stroke:#008000;stroke-linejoin:miter;" x="234.551196" xlink:href="#m298669c6dd" y="115.413392"/>
     <use style="fill:#008000;stroke:#008000;stroke-linejoin:miter;" x="266.589474" xlink:href="#m298669c6dd" y="128.358718"/>
     <use style="fill:#008000;stroke:#008000;stroke-linejoin:miter;" x="298.627751" xlink:href="#m298669c6dd" y="146.635915"/>
     <use style="fill:#008000;stroke:#008000;stroke-linejoin:miter;" x="330.666029" xlink:href="#m298669c6dd" y="169.583334"/>
     <use style="fill:#008000;stroke:#008000;stroke-linejoin:miter;" x="362.704306" xlink:href="#m298669c6dd" y="198.622808"/>
     <use style="fill:#008000;stroke:#008000;stroke-linejoin:miter;" x="394.742584" xlink:href="#m298669c6dd" y="232.419831"/>
     <use style="fill:#008000;stroke:#008000;stroke-linejoin:miter;" x="426.780861" xlink:href="#m298669c6dd" y="271.833436"/>
     <use style="fill:#008000;stroke:#008000;stroke-linejoin:miter;" x="458.819139" xlink:href="#m298669c6dd" y="316.721611"/>
     <use style="fill:#008000;stroke:#008000;stroke-linejoin:miter;" x="490.857416" xlink:href="#m298669c6dd" y="358.250936"/>
     <use style="fill:#008000;stroke:#008000;stroke-linejoin:miter;" x="522.895694" xlink:href="#m298669c6dd" y="394.042437"/>
     <use style="fill:#008000;stroke:#008000;stroke-linejoin:miter;" x="554.933971" xlink:href="#m298669c6dd" y="410.572452"/>
     <use style="fill:#008000;stroke:#008000;stroke-linejoin:miter;" x="586.972249" xlink:href="#m298669c6dd" y="405.632987"/>
     <use style="fill:#008000;stroke:#008000;stroke-linejoin:miter;" x="619.010526" xlink:href="#m298669c6dd" y="395.045486"/>
     <use style="fill:#008000;stroke:#008000;stroke-linejoin:miter;" x="651.048804" xlink:href="#m298669c6dd" y="388.400534"/>
     <use style="fill:#008000;stroke:#008000;stroke-linejoin:miter;" x="683.087081" xlink:href="#m298669c6dd" y="385.994165"/>
     <use style="fill:#008000;stroke:#008000;stroke-linejoin:miter;" x="715.125359" xlink:href="#m298669c6dd" y="388.340717"/>
     <use style="fill:#008000;stroke:#008000;stroke-linejoin:miter;" x="747.163636" xlink:href="#m298669c6dd" y="394.382819"/>
    </g>
   </g>
   <g id="line2d_29">
    <defs>
     <path d="M -4.5 0 
L 0 6.75 
L 4.5 0 
" id="meb13dcdf72" style="stroke:#008000;stroke-linejoin:miter;"/>
    </defs>
    <g clip-path="url(#p52910d430f)">
     <use style="fill:#008000;stroke:#008000;stroke-linejoin:miter;" x="138.436364" xlink:href="#meb13dcdf72" y="134.603414"/>
     <use style="fill:#008000;stroke:#008000;stroke-linejoin:miter;" x="170.474641" xlink:href="#meb13dcdf72" y="140.16955"/>
     <use style="fill:#008000;stroke:#008000;stroke-linejoin:miter;" x="202.512919" xlink:href="#meb13dcdf72" y="149.430894"/>
     <use style="fill:#008000;stroke:#008000;stroke-linejoin:miter;" x="234.551196" xlink:href="#meb13dcdf72" y="161.357889"/>
     <use style="fill:#008000;stroke:#008000;stroke-linejoin:miter;" x="266.589474" xlink:href="#meb13dcdf72" y="174.47019"/>
     <use style="fill:#008000;stroke:#008000;stroke-linejoin:miter;" x="298.627751" xlink:href="#meb13dcdf72" y="193.629176"/>
     <use style="fill:#008000;stroke:#008000;stroke-linejoin:miter;" x="330.666029" xlink:href="#meb13dcdf72" y="218.050642"/>
     <use style="fill:#008000;stroke:#008000;stroke-linejoin:miter;" x="362.704306" xlink:href="#meb13dcdf72" y="249.930793"/>
     <use style="fill:#008000;stroke:#008000;stroke-linejoin:miter;" x="394.742584" xlink:href="#meb13dcdf72" y="290.021779"/>
     <use style="fill:#008000;stroke:#008000;stroke-linejoin:miter;" x="426.780861" xlink:href="#meb13dcdf72" y="332.680161"/>
     <use style="fill:#008000;stroke:#008000;stroke-linejoin:miter;" x="458.819139" xlink:href="#meb13dcdf72" y="381.190095"/>
     <use style="fill:#008000;stroke:#008000;stroke-linejoin:miter;" x="490.857416" xlink:href="#meb13dcdf72" y="431.888242"/>
     <use style="fill:#008000;stroke:#008000;stroke-linejoin:miter;" x="522.895694" xlink:href="#meb13dcdf72" y="448.907121"/>
     <use style="fill:#008000;stroke:#008000;stroke-linejoin:miter;" x="554.933971" xlink:href="#meb13dcdf72" y="456.412019"/>
     <use style="fill:#008000;stroke:#008000;stroke-linejoin:miter;" x="586.972249" xlink:href="#meb13dcdf72" y="452.451151"/>
     <use style="fill:#008000;stroke:#008000;stroke-linejoin:miter;" x="619.010526" xlink:href="#meb13dcdf72" y="442.226238"/>
     <use style="fill:#008000;stroke:#008000;stroke-linejoin:miter;" x="651.048804" xlink:href="#meb13dcdf72" y="434.607138"/>
     <use style="fill:#008000;stroke:#008000;stroke-linejoin:miter;" x="683.087081" xlink:href="#meb13dcdf72" y="431.758774"/>
     <use style="fill:#008000;stroke:#008000;stroke-linejoin:miter;" x="715.125359" xlink:href="#meb13dcdf72" y="434.462204"/>
     <use style="fill:#008000;stroke:#008000;stroke-linejoin:miter;" x="747.163636" xlink:href="#meb13dcdf72" y="441.0758"/>
    </g>
   </g>
   <g id="line2d_30">
    <path clip-path="url(#p52910d430f)" d="M 138.436364 109.253589 
L 170.474641 155.416629 
L 202.512919 225.584277 
L 234.551196 303.418915 
L 266.589474 411.168507 
L 298.627751 424.031429 
L 330.666029 426.902666 
L 362.704306 428.824367 
L 394.742584 429.784765 
L 426.780861 430.938431 
L 458.819139 431.760566 
L 490.857416 432.159534 
L 522.895694 432.651884 
L 554.933971 432.90148 
L 586.972249 433.044042 
L 619.010526 433.190169 
L 651.048804 433.275603 
L 683.087081 433.39508 
L 715.125359 433.527897 
L 747.163636 433.556563 
" style="fill:none;stroke:#ff0000;stroke-linecap:square;"/>
   </g>
   <g id="line2d_31">
    <path clip-path="url(#p52910d430f)" d="M 138.436364 109.253589 
L 170.474641 281.33726 
L 202.512919 296.043836 
L 234.551196 310.168886 
L 266.589474 322.077609 
L 298.627751 331.359524 
L 330.666029 339.549694 
L 362.704306 346.607771 
L 394.742584 352.65224 
L 426.780861 359.356004 
L 458.819139 392.840107 
L 490.857416 413.233141 
L 522.895694 421.215098 
L 554.933971 424.047814 
L 586.972249 424.92893 
L 619.010526 425.033158 
L 651.048804 425.126486 
L 683.087081 424.979976 
L 715.125359 425.033701 
L 747.163636 424.937038 
" style="fill:none;stroke:#0000ff;stroke-linecap:square;"/>
   </g>
   <g id="line2d_32">
    <path clip-path="url(#p52910d430f)" d="M 138.436364 109.253589 
L 170.474641 114.815891 
L 202.512919 124.024708 
L 234.551196 135.86913 
L 266.589474 148.879766 
L 298.627751 167.500807 
L 330.666029 191.019048 
L 362.704306 221.144623 
L 394.742584 257.283199 
L 426.780861 297.86939 
L 458.819139 344.038925 
L 490.857416 388.684614 
L 522.895694 417.898386 
L 554.933971 430.987116 
L 586.972249 426.429743 
L 619.010526 415.983258 
L 651.048804 408.958763 
L 683.087081 406.379471 
L 715.125359 408.865681 
L 747.163636 415.13082 
" style="fill:none;stroke:#008000;stroke-linecap:square;"/>
   </g>
   <g id="patch_3">
    <path d="M 108 504 
L 108 69.12 
" style="fill:none;stroke:#000000;stroke-linecap:square;stroke-linejoin:miter;stroke-width:1.875;"/>
   </g>
   <g id="patch_4">
    <path d="M 777.6 504 
L 777.6 69.12 
" style="fill:none;stroke:#000000;stroke-linecap:square;stroke-linejoin:miter;stroke-width:1.875;"/>
   </g>
   <g id="patch_5">
    <path d="M 108 504 
L 777.6 504 
" style="fill:none;stroke:#000000;stroke-linecap:square;stroke-linejoin:miter;stroke-width:1.875;"/>
   </g>
   <g id="patch_6">
    <path d="M 108 69.12 
L 777.6 69.12 
" style="fill:none;stroke:#000000;stroke-linecap:square;stroke-linejoin:miter;stroke-width:1.875;"/>
   </g>
   <g id="legend_1">
    <g id="patch_7">
     <path d="M 513.202372 168.746901 
L 763.6 168.746901 
Q 767.6 168.746901 767.6 164.746901 
L 767.6 83.12 
Q 767.6 79.12 763.6 79.12 
L 513.202372 79.12 
Q 509.202372 79.12 509.202372 83.12 
L 509.202372 164.746901 
Q 509.202372 168.746901 513.202372 168.746901 
z
" style="fill:#ffffff;opacity:0.8;stroke:#cccccc;stroke-linejoin:miter;stroke-width:1.5;"/>
    </g>
    <g id="LineCollection_7">
     <path d="M 537.202372 104.12 
L 537.202372 84.12 
" style="fill:none;stroke:#ff0000;"/>
    </g>
    <g id="line2d_33">
     <defs>
      <path d="M 4.5 0 
L -4.5 -0 
" id="m8460b5012b" style="stroke:#ff0000;"/>
     </defs>
     <g>
      <use style="fill:#ff0000;stroke:#ff0000;" x="537.202372" xlink:href="#m8460b5012b" y="104.12"/>
     </g>
    </g>
    <g id="line2d_34">
     <g>
      <use style="fill:#ff0000;stroke:#ff0000;" x="537.202372" xlink:href="#m8460b5012b" y="84.12"/>
     </g>
    </g>
    <g id="line2d_35">
     <path d="M 517.202372 94.12 
L 557.202372 94.12 
" style="fill:none;stroke:#ff0000;stroke-linecap:square;"/>
    </g>
    <g id="line2d_36"/>
    <g id="text_11">
     <!-- SPAG+SGDadaptBatch -->
     <defs>
      <path d="M 43.703125 66.09375 
C 39.296875 68.6875 34.5 71 26.40625 71 
C 13.5 71 5.203125 61.46875 5.203125 51.703125 
C 5.203125 47.875 6.296875 43.546875 10.203125 39.125 
C 14.09375 34.6875 18.5 33.484375 24.09375 32.078125 
C 26.40625 31.46875 30.296875 30.359375 31 30.0625 
C 36.59375 27.84375 39.296875 22.71875 39.296875 17.875 
C 39.296875 11.53125 34.40625 4.796875 25.703125 4.796875 
C 22.703125 4.796875 13.90625 5.296875 5.59375 12.953125 
L 4.203125 5 
C 12.40625 -1 21.296875 -2 25.796875 -2 
C 38.09375 -2 46.90625 7.71875 46.90625 18.78125 
C 46.90625 22.8125 45.703125 27.953125 41.5 32.6875 
C 37.40625 37.203125 33.796875 38.21875 25.59375 40.4375 
C 20.90625 41.640625 17.90625 42.453125 15.40625 45.5625 
C 13.703125 47.78125 12.796875 49.890625 12.796875 52.609375 
C 12.796875 58.25 17.59375 64.390625 26.40625 64.390625 
C 30.796875 64.390625 36.5 63.484375 42.296875 58.046875 
z
" id="CMSS17-83"/>
      <path d="M 32.90625 29 
C 44.90625 29 54.703125 38.234375 54.703125 49.046875 
C 54.703125 59.65625 45.296875 69 32.296875 69 
L 8.90625 69 
L 8.90625 0 
L 17.296875 0 
L 17.296875 29 
z
M 30.09375 63.390625 
C 41.703125 63.390625 46.796875 56.21875 46.796875 49.046875 
C 46.796875 42.359375 42.09375 34.796875 30.09375 34.796875 
L 17.09375 34.796875 
L 17.09375 63.390625 
z
" id="CMSS17-80"/>
      <path d="M 35.5 69 
L 26.90625 69 
L 2.59375 0 
L 10.203125 0 
L 17.203125 20 
L 44 20 
L 51.09375 0 
L 59.796875 0 
z
M 42.09375 25.59375 
L 19.09375 25.59375 
C 23.90625 39.53125 29.90625 56.84375 30.59375 61.3125 
L 30.703125 61.3125 
C 31.40625 57.234375 33.40625 51.265625 35.09375 46.1875 
z
" id="CMSS17-65"/>
      <path d="M 56.40625 29.1875 
L 36.5 29.1875 
L 36.5 23 
L 48.796875 23 
L 48.796875 7.390625 
C 44.90625 6.296875 40.90625 5.5 36.90625 5.5 
C 22.90625 5.5 14.59375 20.484375 14.59375 34.6875 
C 14.59375 48.796875 23.296875 63.59375 36.90625 63.59375 
C 44.59375 63.59375 48.90625 61.1875 54.203125 57.1875 
L 55.5 65.1875 
C 48.90625 68.59375 44.796875 70 37.296875 70 
C 17.90625 70 6.203125 52.390625 6.203125 34.390625 
C 6.203125 17.1875 18 -1 36.703125 -1 
C 43.703125 -1 50.203125 0.796875 56.40625 3.890625 
z
" id="CMSS17-71"/>
      <path d="M 38.296875 23 
L 64.703125 23 
C 66.09375 23 67.796875 23 67.796875 24.6875 
C 67.796875 26.5 66.203125 26.5 64.703125 26.5 
L 38.296875 26.5 
L 38.296875 52.890625 
C 38.296875 54.296875 38.296875 56 36.59375 56 
C 34.796875 56 34.796875 54.390625 34.796875 52.890625 
L 34.796875 26.5 
L 8.296875 26.5 
C 6.90625 26.5 5.203125 26.5 5.203125 24.796875 
C 5.203125 23 6.796875 23 8.296875 23 
L 34.796875 23 
L 34.796875 -3.03125 
C 34.796875 -4.40625 34.796875 -6.109375 36.5 -6.109375 
C 38.296875 -6.109375 38.296875 -4.515625 38.296875 -3.03125 
z
" id="CMSS17-43"/>
      <path d="M 8.90625 69 
L 8.90625 0 
L 33.5 0 
C 49.90625 0 62.5 15.328125 62.5 33.890625 
C 62.5 53.0625 49.90625 69 33.5 69 
z
M 17.09375 5.59375 
L 17.09375 63.390625 
L 31.296875 63.390625 
C 44.703125 63.390625 54.296875 51.171875 54.296875 33.890625 
C 54.296875 17.3125 44.796875 5.59375 31.296875 5.59375 
z
" id="CMSS17-68"/>
      <path d="M 37.59375 27.953125 
C 37.59375 37.484375 30.90625 44 21.90625 44 
C 17.5 44 12.703125 43.1875 7.203125 39.984375 
L 7.796875 33.328125 
C 10.296875 35.15625 14.59375 38.09375 21.796875 38.09375 
C 26.90625 38.09375 30 34.140625 30 27.84375 
L 30 24 
C 14 23.5 4 18.890625 4 11.109375 
C 4 7.0625 6.5 -1 14.796875 -1 
C 16.296875 -1 24.40625 -0.8125 30.203125 3.5 
L 30.203125 -0.203125 
L 37.59375 -0.203125 
z
M 30 12.875 
C 30 11.109375 30 8.734375 27 6.96875 
C 24.40625 5.296875 21.09375 5.09375 19.703125 5.09375 
C 14.703125 5.09375 11.296875 7.859375 11.296875 11.296875 
C 11.296875 18.203125 26.90625 18.890625 30 19 
z
" id="CMSS17-97"/>
      <path d="M 40.796875 69 
L 33.40625 69 
L 33.40625 38.984375 
C 30.296875 41.59375 25.203125 44 19.59375 44 
C 10.5 44 3.296875 34.046875 3.296875 21.484375 
C 3.296875 8.9375 10.40625 -1 19.296875 -1 
C 26.203125 -1 30.796875 2.6875 33.203125 4.796875 
L 33.203125 -0.203125 
L 40.796875 -0.203125 
z
M 33.203125 13.296875 
C 33.203125 11.875 33.203125 10.359375 30.09375 7.625 
C 28.09375 5.90625 25.703125 5.09375 23.40625 5.09375 
C 18 5.09375 10.90625 9.140625 10.90625 21.390625 
C 10.90625 34.140625 18.90625 37.890625 24.40625 37.890625 
C 28.09375 37.890625 31.09375 36.0625 33.203125 33.03125 
z
" id="CMSS17-100"/>
      <path d="M 15.09375 4.296875 
C 18.40625 1.09375 22.90625 -1 27.703125 -1 
C 37 -1 45 8.640625 45 21.59375 
C 45 33.546875 39 44 30.40625 44 
C 25.40625 44 19.40625 42.1875 14.90625 38.59375 
L 14.90625 43.1875 
L 7.5 43.1875 
L 7.5 -20 
L 15.09375 -20 
z
M 15.09375 32.625 
C 15.90625 33.84375 19.296875 37.6875 24.796875 37.6875 
C 31.796875 37.6875 37.40625 30.40625 37.40625 21.59375 
C 37.40625 11.578125 30.59375 5.09375 23.90625 5.09375 
C 21.90625 5.09375 19.796875 5.59375 17.796875 7.3125 
C 15.09375 9.75 15.09375 11.265625 15.09375 12.6875 
z
" id="CMSS17-112"/>
      <path d="M 8.90625 69 
L 8.90625 0 
L 33.796875 0 
C 47.40625 0 57.296875 8.984375 57.296875 18.75 
C 57.296875 26.3125 50.796875 33.984375 39.09375 36.1875 
C 52.09375 39.984375 54.703125 47.484375 54.703125 51.734375 
C 54.703125 60.625 44.90625 69 31.203125 69 
z
M 17 39 
L 17 63.390625 
L 28.5 63.390625 
C 38.796875 63.390625 46.90625 58.15625 46.90625 51.640625 
C 46.90625 45.703125 40.5 39 27.59375 39 
z
M 17 5.59375 
L 17 32.890625 
L 30.296875 32.890625 
C 41.09375 32.890625 49.40625 26.21875 49.40625 18.84375 
C 49.40625 12.0625 42.09375 5.59375 31 5.59375 
z
" id="CMSS17-66"/>
      <path d="M 40.90625 29.34375 
C 40.90625 35.671875 39.40625 44 28.09375 44 
C 21.796875 44 17.703125 40.890625 14.796875 37.484375 
L 14.796875 69 
L 7.40625 69 
L 7.40625 0 
L 15 0 
L 15 24.3125 
C 15 30.65625 17.40625 37.890625 24.203125 37.890625 
C 33 37.890625 33.296875 31.953125 33.296875 28.53125 
L 33.296875 0 
L 40.90625 0 
z
" id="CMSS17-104"/>
     </defs>
     <g transform="translate(573.202372 101.12)scale(0.2 -0.2)">
      <use transform="scale(0.996264)" xlink:href="#CMSS17-83"/>
      <use transform="translate(52.048516 0)scale(0.996264)" xlink:href="#CMSS17-80"/>
      <use transform="translate(103.976847 0)scale(0.996264)" xlink:href="#CMSS17-65"/>
      <use transform="translate(163.592248 0)scale(0.996264)" xlink:href="#CMSS17-71"/>
      <use transform="translate(226.050474 0)scale(0.996264)" xlink:href="#CMSS17-43"/>
      <use transform="translate(298.918408 0)scale(0.996264)" xlink:href="#CMSS17-83"/>
      <use transform="translate(350.966925 0)scale(0.996264)" xlink:href="#CMSS17-71"/>
      <use transform="translate(413.42515 0)scale(0.996264)" xlink:href="#CMSS17-68"/>
      <use transform="translate(480.967992 0)scale(0.996264)" xlink:href="#CMSS17-97"/>
      <use transform="translate(525.889912 0)scale(0.996264)" xlink:href="#CMSS17-100"/>
      <use transform="translate(574.094855 0)scale(0.996264)" xlink:href="#CMSS17-97"/>
      <use transform="translate(619.016776 0)scale(0.996264)" xlink:href="#CMSS17-112"/>
      <use transform="translate(667.221719 0)scale(0.996264)" xlink:href="#CMSS17-116"/>
      <use transform="translate(701.053286 0)scale(0.996264)" xlink:href="#CMSS17-66"/>
      <use transform="translate(763.391326 0)scale(0.996264)" xlink:href="#CMSS17-97"/>
      <use transform="translate(808.313247 0)scale(0.996264)" xlink:href="#CMSS17-116"/>
      <use transform="translate(842.144813 0)scale(0.996264)" xlink:href="#CMSS17-99"/>
      <use transform="translate(883.783635 0)scale(0.996264)" xlink:href="#CMSS17-104"/>
     </g>
    </g>
    <g id="LineCollection_8">
     <path d="M 537.202372 131.995634 
L 537.202372 111.995634 
" style="fill:none;stroke:#0000ff;"/>
    </g>
    <g id="line2d_37">
     <defs>
      <path d="M 4.5 0 
L -4.5 -0 
" id="m1d0e972dfe" style="stroke:#0000ff;"/>
     </defs>
     <g>
      <use style="fill:#0000ff;stroke:#0000ff;" x="537.202372" xlink:href="#m1d0e972dfe" y="131.995634"/>
     </g>
    </g>
    <g id="line2d_38">
     <g>
      <use style="fill:#0000ff;stroke:#0000ff;" x="537.202372" xlink:href="#m1d0e972dfe" y="111.995634"/>
     </g>
    </g>
    <g id="line2d_39">
     <path d="M 517.202372 121.995634 
L 557.202372 121.995634 
" style="fill:none;stroke:#0000ff;stroke-linecap:square;"/>
    </g>
    <g id="line2d_40"/>
    <g id="text_12">
     <!-- SGDadaptBatch -->
     <g transform="translate(573.202372 128.995634)scale(0.2 -0.2)">
      <use transform="scale(0.996264)" xlink:href="#CMSS17-83"/>
      <use transform="translate(52.048516 0)scale(0.996264)" xlink:href="#CMSS17-71"/>
      <use transform="translate(114.506742 0)scale(0.996264)" xlink:href="#CMSS17-68"/>
      <use transform="translate(182.049583 0)scale(0.996264)" xlink:href="#CMSS17-97"/>
      <use transform="translate(226.971504 0)scale(0.996264)" xlink:href="#CMSS17-100"/>
      <use transform="translate(275.176447 0)scale(0.996264)" xlink:href="#CMSS17-97"/>
      <use transform="translate(320.098368 0)scale(0.996264)" xlink:href="#CMSS17-112"/>
      <use transform="translate(368.303311 0)scale(0.996264)" xlink:href="#CMSS17-116"/>
      <use transform="translate(402.134878 0)scale(0.996264)" xlink:href="#CMSS17-66"/>
      <use transform="translate(464.472918 0)scale(0.996264)" xlink:href="#CMSS17-97"/>
      <use transform="translate(509.394838 0)scale(0.996264)" xlink:href="#CMSS17-116"/>
      <use transform="translate(543.226405 0)scale(0.996264)" xlink:href="#CMSS17-99"/>
      <use transform="translate(584.865227 0)scale(0.996264)" xlink:href="#CMSS17-104"/>
     </g>
    </g>
    <g id="LineCollection_9">
     <path d="M 537.202372 159.871267 
L 537.202372 139.871267 
" style="fill:none;stroke:#008000;"/>
    </g>
    <g id="line2d_41">
     <defs>
      <path d="M 4.5 0 
L -4.5 -0 
" id="maf52b8e221" style="stroke:#008000;"/>
     </defs>
     <g>
      <use style="fill:#008000;stroke:#008000;" x="537.202372" xlink:href="#maf52b8e221" y="159.871267"/>
     </g>
    </g>
    <g id="line2d_42">
     <g>
      <use style="fill:#008000;stroke:#008000;" x="537.202372" xlink:href="#maf52b8e221" y="139.871267"/>
     </g>
    </g>
    <g id="line2d_43">
     <path d="M 517.202372 149.871267 
L 557.202372 149.871267 
" style="fill:none;stroke:#008000;stroke-linecap:square;"/>
    </g>
    <g id="line2d_44"/>
    <g id="text_13">
     <!-- ProxSGD -->
     <defs>
      <path d="M 14.90625 21.390625 
C 14.90625 30.84375 21.796875 37.171875 30.59375 37.375 
L 30.59375 44 
C 24.203125 43.890625 18.203125 40.6875 14.59375 35.46875 
L 14.59375 43.484375 
L 7.5 43.484375 
L 7.5 0 
L 14.90625 0 
z
" id="CMSS17-114"/>
      <path d="M 44.203125 21.1875 
C 44.203125 33.984375 34.703125 44 23.5 44 
C 12 44 2.703125 33.6875 2.703125 21.1875 
C 2.703125 8.5 12.296875 -1 23.40625 -1 
C 34.796875 -1 44.203125 8.796875 44.203125 21.1875 
z
M 23.5 5.296875 
C 16.40625 5.296875 10.296875 11.09375 10.296875 21.984375 
C 10.296875 33.59375 17.40625 37.890625 23.40625 37.890625 
C 29.90625 37.890625 36.59375 33.1875 36.59375 21.984375 
C 36.59375 10.6875 30.09375 5.296875 23.5 5.296875 
z
" id="CMSS17-111"/>
      <path d="M 24.796875 22.1875 
L 41.5 43 
L 32.796875 43 
L 21.296875 27.890625 
L 9.40625 43 
L 0.5 43 
L 17.796875 22.1875 
L 0 0 
L 8.796875 0 
L 21.296875 17.59375 
L 34.296875 0 
L 43.09375 0 
z
" id="CMSS17-120"/>
     </defs>
     <g transform="translate(573.202372 156.871267)scale(0.2 -0.2)">
      <use transform="scale(0.996264)" xlink:href="#CMSS17-80"/>
      <use transform="translate(59.735586 0)scale(0.996264)" xlink:href="#CMSS17-114"/>
      <use transform="translate(91.645359 0)scale(0.996264)" xlink:href="#CMSS17-111"/>
      <use transform="translate(135.886528 0)scale(0.996264)" xlink:href="#CMSS17-120"/>
      <use transform="translate(178.88667 0)scale(0.996264)" xlink:href="#CMSS17-83"/>
      <use transform="translate(230.935186 0)scale(0.996264)" xlink:href="#CMSS17-71"/>
      <use transform="translate(293.393412 0)scale(0.996264)" xlink:href="#CMSS17-68"/>
     </g>
    </g>
   </g>
  </g>
 </g>
 <defs>
  <clipPath id="p52910d430f">
   <rect height="434.88" width="669.6" x="108" y="69.12"/>
  </clipPath>
 </defs>
</svg>
